<svg width="155" height="27" xmlns="http://www.w3.org/2000/svg" xmlns:xlink="http://www.w3.org/1999/xlink" overflow="hidden">
   <defs>
      <clipPath id="clip0">
         <rect x="449" y="257" width="155" height="27"/>
      </clipPath>
      <clipPath id="clip1">
         <rect x="450" y="258" width="154" height="25"/>
      </clipPath>
      <clipPath id="clip2">
         <rect x="450" y="258" width="154" height="25"/>
      </clipPath>
   </defs>
   <g clip-path="url(#clip0)" transform="translate(-449 -257)">
      <g clip-path="url(#clip1)">
         <g clip-path="url(#clip2)">
            <!-- <path d="M0 0 209.659 0 209.659 117.933 0 117.933Z" fill="#FFFFFF" fill-rule="evenodd" fill-opacity="1" transform="matrix(1 0 0 1.02702 418.687 214.709)"/> -->
            <path d="M28.7308 40.6266 187.433 40.6266 187.433 68.0448 28.7308 68.0448Z" fill="#2D92FF" fill-rule="evenodd" fill-opacity="1" transform="matrix(1 0 0 1.02702 418.687 214.709)"/>
            <path d="M109.302 61.6051 109.302 46.8532 115.987 46.8532C117.584 46.8532 118.852 47.2968 119.792 48.184 120.731 49.0691 121.201 50.2589 121.201 51.7535 121.201 53.2481 120.731 54.4391 119.792 55.3263 118.852 56.2135 117.584 56.6571 115.987 56.6571L111.745 56.6571 111.745 61.6051 109.302 61.6051ZM111.745 54.3163 115.881 54.3163C116.854 54.3163 117.577 54.0923 118.048 53.644 118.521 53.1957 118.758 52.5657 118.758 51.7535 118.758 50.9573 118.521 50.3351 118.048 49.8868 117.577 49.4388 116.854 49.2146 115.881 49.2146L111.745 49.2146 111.745 54.3163ZM122.131 61.6051 122.131 50.2485 124.577 50.2485 124.14 53.2652C123.926 52.9694 123.908 52.6567 124.086 52.3267 124.263 51.9946 124.522 51.6578 124.864 51.3166 125.205 50.9731 125.636 50.682 126.157 50.4432 126.678 50.2021 127.292 50.0815 128 50.0815L128.539 50.0815 128.539 52.5281 127.914 52.5281C127.23 52.5281 126.638 52.7146 126.14 53.0876 125.644 53.461 125.26 53.9556 124.987 54.5721 124.714 55.1863 124.577 55.8472 124.577 56.5547L124.577 61.6051 122.131 61.6051ZM134.08 61.7723C132.936 61.7723 131.937 61.5096 131.084 60.9841 130.231 60.4586 129.577 59.7501 129.122 58.8582 128.669 57.9664 128.443 56.9892 128.443 55.9268 128.443 54.8508 128.669 53.8703 129.122 52.9855 129.577 52.1004 130.231 51.3952 131.084 50.8697 131.937 50.3442 132.936 50.0815 134.08 50.0815 135.24 50.0815 136.243 50.3442 137.086 50.8697 137.933 51.3952 138.582 52.1004 139.035 52.9855 139.488 53.8703 139.714 54.8508 139.714 55.9268 139.714 56.9892 139.488 57.9664 139.035 58.8582 138.582 59.7501 137.933 60.4586 137.086 60.9841 136.243 61.5096 135.24 61.7723 134.08 61.7723ZM134.08 59.4724C134.774 59.4724 135.354 59.3155 135.82 59.0016 136.289 58.6853 136.647 58.2565 136.895 57.7149 137.146 57.1712 137.271 56.5752 137.271 55.9268 137.271 55.2649 137.146 54.6665 136.895 54.1319 136.647 53.595 136.289 53.1696 135.82 52.8556 135.354 52.5396 134.774 52.3814 134.08 52.3814 133.4 52.3814 132.822 52.5396 132.347 52.8556 131.871 53.1719 131.51 53.5973 131.261 54.1319 131.014 54.6665 130.889 55.2649 130.889 55.9268 130.889 56.5752 131.014 57.1712 131.261 57.7149 131.51 58.2565 131.871 58.6853 132.347 59.0016 132.822 59.3155 133.4 59.4724 134.08 59.4724ZM140.916 65.7581 140.916 50.2485 143.363 50.2485 143.247 51.3236C143.224 51.2212 143.555 50.9892 144.24 50.6273 144.927 50.2635 145.74 50.0815 146.68 50.0815 147.783 50.0815 148.75 50.3452 149.58 50.873 150.413 51.3986 151.055 52.1037 151.508 52.9889 151.963 53.8714 152.191 54.8508 152.191 55.9268 152.191 56.9892 151.963 57.9664 151.508 58.8582 151.055 59.7477 150.413 60.4563 149.58 60.9841 148.75 61.5096 147.783 61.7723 146.68 61.7723 145.738 61.7723 144.924 61.5846 144.24 61.2094 143.555 60.8317 143.224 60.5929 143.247 60.4928L143.363 65.7581 140.916 65.7581ZM146.468 59.4724C147.166 59.4724 147.755 59.3142 148.236 58.9979 148.718 58.6819 149.09 58.2531 149.351 57.7115 149.613 57.1678 149.744 56.5731 149.744 55.9268 149.744 55.2696 149.613 54.6735 149.351 54.1387 149.09 53.602 148.718 53.1753 148.236 52.8592 147.755 52.5406 147.166 52.3814 146.468 52.3814 145.79 52.3814 145.213 52.5396 144.738 52.8556 144.262 53.1719 143.901 53.5973 143.653 54.1319 143.405 54.6665 143.281 55.2649 143.281 55.9268 143.281 56.5752 143.405 57.1712 143.653 57.7149 143.901 58.2565 144.262 58.6853 144.738 59.0016 145.213 59.3155 145.79 59.4724 146.468 59.4724ZM153.391 61.6051 153.391 46.0547 155.837 46.0547 155.714 51.3781C155.683 51.2871 155.968 51.0483 156.571 50.6615 157.174 50.2747 157.944 50.0815 158.881 50.0815 159.682 50.0815 160.434 50.2713 161.137 50.6514 161.842 51.0289 162.414 51.592 162.853 52.3404 163.292 53.0866 163.512 53.9956 163.512 55.0671L163.512 61.6051 161.065 61.6051 161.065 55.108C161.065 54.2753 160.834 53.6131 160.373 53.1219 159.911 52.6282 159.309 52.3814 158.567 52.3814 158.056 52.3814 157.595 52.4952 157.185 52.7226 156.778 52.9502 156.451 53.2709 156.206 53.685 155.96 54.099 155.837 54.5812 155.837 55.1319L155.837 61.6051 153.391 61.6051ZM170.349 61.7723C169.204 61.7723 168.2 61.5107 167.335 60.9875 166.471 60.462 165.8 59.7534 165.322 58.8616 164.847 57.9697 164.609 56.9915 164.609 55.9268 164.609 54.8508 164.835 53.8703 165.288 52.9855 165.743 52.1004 166.397 51.3952 167.25 50.8697 168.103 50.3442 169.102 50.0815 170.246 50.0815 171.407 50.0815 172.409 50.3442 173.253 50.8697 174.099 51.3952 174.748 52.1004 175.201 52.9855 175.654 53.8703 175.88 54.8508 175.88 55.9268L175.88 56.9915 167.161 56.9915C167.191 57.2168 167.345 57.5557 167.622 58.0084 167.902 58.459 168.274 58.816 168.738 59.0799 169.204 59.3415 169.748 59.4724 170.369 59.4724 171.024 59.4724 171.569 59.3314 172.004 59.0493 172.441 58.7649 172.823 58.319 173.15 57.7115L175.768 57.7115C175.219 59.1221 174.514 60.1514 173.652 60.7998 172.792 61.4482 171.691 61.7723 170.349 61.7723ZM167.199 54.6507 173.3 54.6507C173.228 54.1887 172.922 53.6951 172.382 53.1696 171.845 52.644 171.134 52.3814 170.246 52.3814 169.359 52.3814 168.649 52.644 168.117 53.1696 167.585 53.6951 167.279 54.1887 167.199 54.6507ZM178.068 61.6051 178.068 52.5077 175.929 52.5077 175.929 50.2485 178.068 50.2485 178.068 46.4949 180.515 46.4949 180.515 50.2485 182.924 50.2485 182.924 52.5077 180.515 52.5077 180.515 61.6051 178.068 61.6051Z" fill="#FFFFFF" fill-rule="nonzero" fill-opacity="1" transform="matrix(1 0 0 1.02702 418.687 214.709)"/>
            <path d="M32.6578 43.0927 103.39 43.0927 103.39 65.5787 32.6578 65.5787Z" fill="#FFFFFF" fill-rule="evenodd" fill-opacity="1" transform="matrix(1 0 0 1.02702 418.687 214.709)"/>
            <path d="M36.415 62.0183 36.415 47.3686 38.3394 47.3686 47.3927 59.6943 47.3927 47.3686 49.051 47.3686 49.051 62.0183 47.1265 62.0183 38.0768 49.6483 38.0768 62.0183 36.415 62.0183ZM57.1948 62.1956C56.0733 62.1956 55.0917 61.9411 54.2499 61.4314 53.4104 60.9216 52.7576 60.2325 52.2912 59.3635 51.8271 58.4921 51.5951 57.5331 51.5951 56.4868 51.5951 55.4243 51.8167 54.462 52.2606 53.5999 52.7042 52.7353 53.3388 52.0496 54.1646 51.5422 54.9903 51.0325 55.9641 50.7779 57.0857 50.7779 58.221 50.7779 59.1978 51.0325 60.0168 51.5422 60.8358 52.0496 61.4661 52.7353 61.9074 53.5999 62.3509 54.462 62.5729 55.4243 62.5729 56.4868L62.5729 57.1487 53.3013 57.1487C53.3899 57.7994 53.6004 58.3944 53.9326 58.9334 54.2647 59.4703 54.7106 59.8981 55.2703 60.2165 55.8298 60.5328 56.4795 60.6909 57.2187 60.6909 57.999 60.6909 58.6542 60.518 59.1844 60.1721 59.7166 59.8242 60.1307 59.377 60.4265 58.831L62.2418 58.831C61.8573 59.8206 61.2478 60.6295 60.4127 61.2574 59.5802 61.883 58.5074 62.1956 57.1948 62.1956ZM53.3217 55.5996 60.8462 55.5996C60.6982 54.6554 60.3002 53.8672 59.6518 53.2346 59.0034 52.6 58.1481 52.2826 57.0857 52.2826 56.0232 52.2826 55.1713 52.6 54.5296 53.2346 53.8882 53.8672 53.4856 54.6554 53.3217 55.5996ZM68.9239 62.1956C68.1708 62.1956 67.4555 62.0149 66.7775 61.6533 66.0996 61.2914 65.5502 60.7534 65.1292 60.0391 64.7084 59.3225 64.4979 58.4408 64.4979 57.3944L64.4979 50.9519 66.1563 50.9519 66.1563 57.3501C66.1563 58.3534 66.4475 59.161 67.0301 59.7729 67.6147 60.385 68.3562 60.6909 69.2547 60.6909 69.8759 60.6909 70.4367 60.5475 70.9371 60.2608 71.44 59.972 71.8427 59.5771 72.1452 59.0768 72.4478 58.5741 72.5989 57.9905 72.5989 57.3262L72.5989 50.9519 74.2574 50.9519 74.2574 62.0183 72.5989 62.0183 72.5989 60.2917C72.201 60.8239 71.7141 61.2745 71.1385 61.6429 70.563 62.0116 69.8249 62.1956 68.9239 62.1956ZM77.1359 62.0183 77.1359 50.9519 78.7944 50.9519 78.7944 53.6749C78.8535 53.4838 78.9671 53.2302 79.1356 52.9139 79.3062 52.5956 79.553 52.2746 79.8761 51.9516 80.2014 51.6264 80.6108 51.3498 81.1044 51.1224 81.6004 50.8927 82.1873 50.7779 82.8653 50.7779L82.9778 50.7779 82.9778 52.4361 82.7766 52.4361C81.9509 52.4361 81.2387 52.6614 80.6404 53.1117 80.0443 53.5623 79.5872 54.1459 79.2686 54.8625 78.9523 55.5768 78.7944 56.339 78.7944 57.1487L78.7944 62.0183 77.1359 62.0183ZM89.151 62.1956C88.0728 62.1956 87.1322 61.9411 86.329 61.4314 85.5258 60.9216 84.9026 60.2325 84.459 59.3635 84.0154 58.4921 83.7935 57.5331 83.7935 56.4868 83.7935 55.4243 84.0154 54.462 84.459 53.5999 84.9026 52.7353 85.5258 52.0496 86.329 51.5422 87.1322 51.0325 88.0728 50.7779 89.151 50.7779 90.0657 50.7779 90.8505 50.9552 91.5056 51.3102 92.1631 51.6627 92.6987 52.1416 93.113 52.7467L93.113 50.9519 94.7712 50.9519 94.7712 62.0183 93.113 62.0183 93.113 60.2473C92.6987 60.8387 92.1631 61.3118 91.5056 61.6668 90.8505 62.0194 90.0657 62.1956 89.151 62.1956ZM89.373 60.6909C90.1987 60.6909 90.8948 60.4998 91.4613 60.1177 92.0301 59.7332 92.4623 59.2201 92.7581 58.5785 93.0537 57.9347 93.2017 57.2376 93.2017 56.4868 93.2017 55.7201 93.0537 55.0194 92.7581 54.3847 92.4623 53.75 92.0301 53.2416 91.4613 52.8592 90.8948 52.475 90.1987 52.2826 89.373 52.2826 88.5607 52.2826 87.8589 52.475 87.2675 52.8592 86.6782 53.2416 86.2289 53.75 85.9196 54.3847 85.6101 55.0194 85.4553 55.7201 85.4553 56.4868 85.4553 57.2376 85.6101 57.9347 85.9196 58.5785 86.2289 59.2201 86.6782 59.7332 87.2675 60.1177 87.8589 60.4998 88.5607 60.6909 89.373 60.6909ZM97.6501 62.0183 97.6501 46.5258 99.3085 46.5258 99.3085 62.0183 97.6501 62.0183Z" fill="#2D92FF" fill-rule="nonzero" fill-opacity="1" transform="matrix(1 0 0 1.02702 418.687 214.709)"/>
         </g>
      </g>
   </g>
</svg>