<svg width="338" height="59" xmlns="http://www.w3.org/2000/svg" xmlns:xlink="http://www.w3.org/1999/xlink" overflow="hidden"><defs><clipPath id="clip0"><rect x="436" y="229" width="338" height="59"/></clipPath><clipPath id="clip1"><rect x="436" y="230" width="338" height="57"/></clipPath><clipPath id="clip2"><rect x="436" y="230" width="338" height="57"/></clipPath><clipPath id="clip3"><rect x="435" y="229" width="339" height="58"/></clipPath><clipPath id="clip4"><rect x="435" y="229" width="339" height="58"/></clipPath></defs><g clip-path="url(#clip0)" transform="translate(-436 -229)"><g clip-path="url(#clip1)"><g clip-path="url(#clip2)"><g clip-path="url(#clip3)"><g clip-path="url(#clip4)"><path d="M0 0 447.524 0 447.524 251.732 0 251.732Z" fill="#FFFFFF" fill-rule="evenodd" fill-opacity="1" transform="matrix(1.00369 0 0 1 373.249 142.023)"/><path d="M61.3267 86.7187 400.082 86.7187 400.082 145.244 61.3267 145.244Z" fill="#2D92FF" fill-rule="evenodd" fill-opacity="1" transform="matrix(1.00369 0 0 1 373.249 142.023)"/><path d="M233.307 131.498 233.307 100.01 247.577 100.01C250.986 100.01 253.693 100.956 255.698 102.85 257.704 104.739 258.707 107.279 258.707 110.469 258.707 113.66 257.704 116.202 255.698 118.096 253.693 119.989 250.986 120.936 247.577 120.936L238.523 120.936 238.523 131.498 233.307 131.498ZM238.523 115.94 247.351 115.94C249.429 115.94 250.971 115.461 251.976 114.505 252.986 113.548 253.491 112.203 253.491 110.469 253.491 108.77 252.986 107.442 251.976 106.485 250.971 105.529 249.429 105.05 247.351 105.05L238.523 105.05 238.523 115.94ZM260.691 131.498 260.691 107.257 265.914 107.257 264.981 113.696C264.524 113.065 264.486 112.397 264.864 111.693 265.243 110.984 265.797 110.265 266.525 109.537 267.254 108.804 268.174 108.182 269.286 107.672 270.398 107.158 271.709 106.9 273.219 106.9L274.37 106.9 274.37 112.123 273.037 112.123C271.575 112.123 270.313 112.521 269.249 113.317 268.191 114.114 267.37 115.17 266.787 116.486 266.205 117.797 265.914 119.207 265.914 120.718L265.914 131.498 260.691 131.498ZM286.198 131.855C283.755 131.855 281.623 131.294 279.803 130.172 277.981 129.051 276.585 127.538 275.614 125.635 274.648 123.731 274.165 121.645 274.165 119.377 274.165 117.081 274.648 114.988 275.614 113.099 276.585 111.21 277.981 109.704 279.803 108.583 281.623 107.461 283.755 106.9 286.198 106.9 288.674 106.9 290.814 107.461 292.615 108.583 294.421 109.704 295.807 111.21 296.774 113.099 297.74 114.988 298.223 117.081 298.223 119.377 298.223 121.645 297.74 123.731 296.774 125.635 295.807 127.538 294.421 129.051 292.615 130.172 290.814 131.294 288.674 131.855 286.198 131.855ZM286.198 126.945C287.679 126.945 288.917 126.611 289.913 125.941 290.913 125.265 291.677 124.35 292.207 123.194 292.741 122.034 293.008 120.761 293.008 119.377 293.008 117.964 292.741 116.687 292.207 115.546 291.677 114.4 290.913 113.492 289.913 112.822 288.917 112.147 287.679 111.81 286.198 111.81 284.746 111.81 283.513 112.147 282.498 112.822 281.483 113.497 280.711 114.405 280.181 115.546 279.652 116.687 279.387 117.964 279.387 119.377 279.387 120.761 279.652 122.034 280.181 123.194 280.711 124.35 281.483 125.265 282.498 125.941 283.513 126.611 284.746 126.945 286.198 126.945ZM300.789 140.363 300.789 107.257 306.011 107.257 305.764 109.552C305.715 109.333 306.422 108.838 307.884 108.065 309.35 107.289 311.086 106.9 313.092 106.9 315.447 106.9 317.51 107.463 319.283 108.59 321.06 109.712 322.432 111.217 323.398 113.106 324.369 114.99 324.855 117.081 324.855 119.377 324.855 121.645 324.369 123.731 323.398 125.635 322.432 127.533 321.06 129.046 319.283 130.172 317.51 131.294 315.447 131.855 313.092 131.855 311.081 131.855 309.345 131.454 307.884 130.653 306.422 129.847 305.715 129.337 305.764 129.124L306.011 140.363 300.789 140.363ZM312.64 126.945C314.131 126.945 315.388 126.608 316.413 125.933 317.442 125.258 318.236 124.343 318.795 123.187 319.353 122.026 319.633 120.757 319.633 119.377 319.633 117.974 319.353 116.702 318.795 115.561 318.236 114.415 317.442 113.504 316.413 112.829 315.388 112.149 314.131 111.81 312.64 111.81 311.193 111.81 309.962 112.147 308.947 112.822 307.932 113.497 307.16 114.405 306.631 115.546 306.101 116.687 305.837 117.964 305.837 119.377 305.837 120.761 306.101 122.034 306.631 123.194 307.16 124.35 307.932 125.265 308.947 125.941 309.962 126.611 311.193 126.945 312.64 126.945ZM327.417 131.498 327.417 98.3051 332.639 98.3051 332.377 109.668C332.309 109.474 332.919 108.964 334.205 108.138 335.492 107.313 337.136 106.9 339.137 106.9 340.846 106.9 342.451 107.306 343.951 108.117 345.456 108.923 346.678 110.125 347.615 111.722 348.552 113.315 349.021 115.255 349.021 117.542L349.021 131.498 343.798 131.498 343.798 117.63C343.798 115.852 343.305 114.439 342.32 113.39 341.333 112.336 340.049 111.81 338.466 111.81 337.374 111.81 336.391 112.053 335.516 112.538 334.647 113.024 333.95 113.708 333.426 114.592 332.901 115.476 332.639 116.505 332.639 117.681L332.639 131.498 327.417 131.498ZM363.614 131.855C361.172 131.855 359.028 131.296 357.182 130.18 355.337 129.058 353.904 127.545 352.885 125.642 351.87 123.738 351.363 121.65 351.363 119.377 351.363 117.081 351.846 114.988 352.812 113.099 353.783 111.21 355.179 109.704 357 108.583 358.821 107.461 360.953 106.9 363.396 106.9 365.872 106.9 368.011 107.461 369.813 108.583 371.619 109.704 373.005 111.21 373.972 113.099 374.938 114.988 375.421 117.081 375.421 119.377L375.421 121.65 356.811 121.65C356.874 122.131 357.202 122.854 357.794 123.82 358.391 124.782 359.185 125.544 360.176 126.108 361.172 126.666 362.332 126.945 363.658 126.945 365.056 126.945 366.219 126.644 367.147 126.042 368.079 125.435 368.895 124.483 369.594 123.187L375.181 123.187C374.01 126.198 372.505 128.395 370.665 129.779 368.829 131.163 366.479 131.855 363.614 131.855ZM356.891 116.653 369.915 116.653C369.759 115.667 369.106 114.614 367.955 113.492 366.809 112.37 365.289 111.81 363.396 111.81 361.501 111.81 359.987 112.37 358.85 113.492 357.714 114.614 357.061 115.667 356.891 116.653ZM380.092 131.498 380.092 112.079 375.524 112.079 375.524 107.257 380.092 107.257 380.092 99.2448 385.315 99.2448 385.315 107.257 390.457 107.257 390.457 112.079 385.315 112.079 385.315 131.498 380.092 131.498Z" fill="#FFFFFF" fill-rule="nonzero" fill-opacity="1" transform="matrix(1.00369 0 0 1 373.249 142.023)"/><path d="M69.709 91.9826 220.69 91.9826 220.69 139.98 69.709 139.98Z" fill="#FFFFFF" fill-rule="evenodd" fill-opacity="1" transform="matrix(1.00369 0 0 1 373.249 142.023)"/><path d="M77.7288 132.38 77.7288 101.11 81.8366 101.11 101.161 127.419 101.161 101.11 104.701 101.11 104.701 132.38 100.593 132.38 81.276 105.976 81.276 132.38 77.7288 132.38ZM122.084 132.758C119.69 132.758 117.595 132.215 115.798 131.127 114.006 130.039 112.613 128.568 111.617 126.713 110.626 124.853 110.131 122.806 110.131 120.573 110.131 118.305 110.604 116.251 111.552 114.411 112.499 112.565 113.853 111.101 115.616 110.018 117.378 108.93 119.457 108.387 121.851 108.387 124.274 108.387 126.359 108.93 128.108 110.018 129.856 111.101 131.201 112.565 132.143 114.411 133.09 116.251 133.564 118.305 133.564 120.573L133.564 121.985 113.773 121.985C113.962 123.374 114.412 124.644 115.121 125.795 115.829 126.941 116.781 127.854 117.976 128.534 119.17 129.209 120.557 129.546 122.135 129.546 123.801 129.546 125.199 129.177 126.331 128.439 127.467 127.696 128.351 126.742 128.982 125.576L132.857 125.576C132.036 127.689 130.735 129.415 128.953 130.756 127.176 132.091 124.886 132.758 122.084 132.758ZM113.817 118.679 129.878 118.679C129.562 116.663 128.712 114.981 127.328 113.631 125.944 112.276 124.119 111.599 121.851 111.599 119.583 111.599 117.765 112.276 116.395 113.631 115.026 114.981 114.167 116.663 113.817 118.679ZM147.12 132.758C145.512 132.758 143.986 132.373 142.539 131.601 141.091 130.828 139.919 129.68 139.02 128.155 138.122 126.626 137.673 124.744 137.673 122.51L137.673 108.758 141.213 108.758 141.213 122.415C141.213 124.557 141.834 126.281 143.078 127.587 144.325 128.893 145.908 129.546 147.826 129.546 149.152 129.546 150.349 129.24 151.417 128.628 152.491 128.012 153.35 127.169 153.996 126.101 154.642 125.028 154.964 123.782 154.964 122.364L154.964 108.758 158.505 108.758 158.505 132.38 154.964 132.38 154.964 128.694C154.115 129.83 153.076 130.792 151.847 131.579 150.619 132.365 149.043 132.758 147.12 132.758ZM164.649 132.38 164.649 108.758 168.189 108.758 168.189 114.57C168.315 114.163 168.557 113.621 168.917 112.946 169.281 112.267 169.808 111.582 170.498 110.892 171.192 110.198 172.066 109.608 173.12 109.122 174.178 108.632 175.431 108.387 176.878 108.387L177.119 108.387 177.119 111.926 176.689 111.926C174.926 111.926 173.406 112.407 172.129 113.369 170.857 114.33 169.881 115.576 169.201 117.106 168.526 118.63 168.189 120.257 168.189 121.985L168.189 132.38 164.649 132.38ZM190.295 132.758C187.994 132.758 185.986 132.215 184.272 131.127 182.557 130.039 181.227 128.568 180.28 126.713 179.333 124.853 178.859 122.806 178.859 120.573 178.859 118.305 179.333 116.251 180.28 114.411 181.227 112.565 182.557 111.101 184.272 110.018 185.986 108.93 187.994 108.387 190.295 108.387 192.248 108.387 193.923 108.765 195.321 109.523 196.725 110.276 197.868 111.298 198.752 112.589L198.752 108.758 202.292 108.758 202.292 132.38 198.752 132.38 198.752 128.6C197.868 129.862 196.725 130.872 195.321 131.629 193.923 132.382 192.248 132.758 190.295 132.758ZM190.769 129.546C192.532 129.546 194.018 129.139 195.227 128.323 196.441 127.502 197.363 126.407 197.995 125.037 198.626 123.663 198.942 122.175 198.942 120.573 198.942 118.936 198.626 117.44 197.995 116.086 197.363 114.731 196.441 113.646 195.227 112.829 194.018 112.009 192.532 111.599 190.769 111.599 189.035 111.599 187.537 112.009 186.275 112.829 185.017 113.646 184.058 114.731 183.398 116.086 182.737 117.44 182.407 118.936 182.407 120.573 182.407 122.175 182.737 123.663 183.398 125.037 184.058 126.407 185.017 127.502 186.275 128.323 187.537 129.139 189.035 129.546 190.769 129.546ZM208.437 132.38 208.437 99.3106 211.977 99.3106 211.977 132.38 208.437 132.38Z" fill="#2D92FF" fill-rule="nonzero" fill-opacity="1" transform="matrix(1.00369 0 0 1 373.249 142.023)"/></g></g></g></g></g></svg>